<svg width="220" height="96" viewBox="0 0 220 96" fill="none" xmlns="http://www.w3.org/2000/svg">
<g clip-path="url(#clip0)">
<path d="M93.566 44.7407C92.9471 44.665 92.3246 44.6182 91.6984 44.6182H89.1004C88.4779 44.6182 87.8553 44.665 87.2364 44.7407C85.0702 45.0072 82.8967 45.7854 81.0615 47.1435C79.2263 45.7854 77.0565 45.0072 74.8902 44.7407C74.2713 44.665 73.6488 44.6182 73.0227 44.6182H70.4246C69.7985 44.6182 69.176 44.665 68.5606 44.7407C63.1234 45.4071 57.6214 49.2113 57.6214 57.7563V79.0142H67.2076V57.45C67.2076 55.2958 68.3519 54.1142 70.4246 54.1142H73.0227C75.0954 54.1142 76.2396 55.2994 76.2396 57.45V79.0142H85.8798V57.45C85.8798 55.2958 87.0205 54.1142 89.0932 54.1142H91.6912C93.7675 54.1142 94.9082 55.2994 94.9082 57.45V79.0142H104.494V57.7563C104.502 49.2149 98.9996 45.4107 93.566 44.7407ZM210.572 52.9722C211.072 52.9722 220 52.9722 220 52.9722V44.6902C220 44.6902 211.022 44.6722 210.569 44.6722C209.975 44.6722 209.737 44.4236 209.737 43.8725C209.737 43.3249 209.734 36.3254 209.734 36.3254L199.5 36.329V70.4801C199.5 76.9897 201.551 79.0178 209.802 79.0178C213.354 79.0178 220.004 79.0034 220.004 79.0034V70.4837C220.004 70.4837 216.042 70.4729 212.361 70.4729C210.615 70.4729 209.737 69.6263 209.737 67.5873V53.8008C209.734 53.3361 210.072 52.9722 210.572 52.9722ZM42.4505 79.0178H52.0475V45.49H42.4505V79.0178ZM145.815 79.0178H155.203V36.329H145.815V79.0178ZM180.417 44.8091H174.228C165.013 45.1045 160.687 47.2299 160.687 61.7514C160.687 76.035 165.268 79.3889 174.228 79.3889H180.417C189.374 79.3889 193.958 76.035 193.958 61.7514C193.958 47.2263 189.629 45.1009 180.417 44.8091ZM177.323 71.0384C171.85 70.8439 170.972 69.6119 170.972 61.8198C170.972 54.4636 171.756 53.2316 177.323 53.0227C182.893 53.228 183.678 54.46 183.678 61.8198C183.678 69.6119 182.8 70.8475 177.323 71.0384ZM119.802 44.7587C113.523 44.7587 110.076 44.7407 110.076 44.7407L110.09 94.1913L119.762 94.1553V79.5546C132.677 79.5546 140.367 79.5798 140.367 61.7514C140.367 43.9301 133.879 44.7587 119.802 44.7587ZM119.795 71.0817V52.9758C129.043 52.9758 130.079 52.9758 130.079 61.8198C130.083 71.2186 128.92 71.0817 119.795 71.0817ZM25.5703 52.4102H12.2742C10.6225 52.4102 9.46383 51.1458 9.46383 49.5895V48.3863C9.46383 46.8301 10.6369 45.562 12.2742 45.562H35.5667V36.1885H13.127C4.59518 36.1885 0.791652 41.4084 0.125945 46.9345C0.0503778 47.5578 0 48.1918 0 48.8294C0 49.449 0.043181 50.0578 0.125945 50.7675C0.77366 56.2252 4.56639 62.6123 13.1234 62.6123H25.3616C27.0097 62.6123 28.172 63.884 28.172 65.4366V66.6435C28.172 68.1961 26.9809 69.4534 25.3616 69.4534H0.964376V79.0214H24.5448C33.0766 79.0214 36.8802 73.2972 37.5459 67.7818C37.6214 67.1442 37.6682 66.5138 37.6682 65.8797C37.6682 65.2601 37.6286 64.6441 37.5423 63.9416C36.9198 58.7289 33.4041 52.612 25.5703 52.4102Z" fill="#675C53"/>
<path d="M136.503 17.899C136.423 17.8846 131.45 35.8572 109.95 35.8572C88.4457 35.8572 83.4043 18.2557 83.4043 17.9963C97.5317 16.0366 102.429 20.5648 102.429 20.5648C102.429 20.5648 102.433 7.61767 110.022 1C117.204 7.52761 117.204 20.5648 117.204 20.5648C117.204 20.5648 122.292 16.0366 136.503 17.899Z" fill="#EBB700"/>
</g>
<defs>
<clipPath id="clip0">
<rect width="220" height="96" fill="white"/>
</clipPath>
</defs>
</svg>
